<svg width="10" height="8" viewBox="0 0 10 8" fill="none" xmlns="http://www.w3.org/2000/svg">
<path d="M9.20698 1.19342C9.39445 1.38095 9.49977 1.63526 9.49977 1.90042C9.49977 2.16559 9.39445 2.41989 9.20698 2.60742L4.20698 7.60742C4.01945 7.79489 3.76514 7.90021 3.49998 7.90021C3.23482 7.90021 2.98051 7.79489 2.79298 7.60742L0.79298 5.60742C0.610822 5.41882 0.510027 5.16622 0.512306 4.90402C0.514584 4.64182 0.619753 4.39101 0.805161 4.2056C0.990569 4.02019 1.24138 3.91503 1.50358 3.91275C1.76578 3.91047 2.01838 4.01126 2.20698 4.19342L3.49998 5.48642L7.79298 1.19342C7.98051 1.00595 8.23482 0.900635 8.49998 0.900635C8.76514 0.900635 9.01945 1.00595 9.20698 1.19342Z" fill="white"/>
</svg>
