<svg width="107" height="107" viewBox="0 0 107 107" fill="none" xmlns="http://www.w3.org/2000/svg">
<circle cx="9.5" cy="1.40015" r="1" fill="#B1B5C3"/>
<circle cx="1.5" cy="1.40015" r="1" fill="#B1B5C3"/>
<circle cx="9.5" cy="9.40015" r="1" fill="#B1B5C3"/>
<circle cx="1.5" cy="9.40015" r="1" fill="#B1B5C3"/>
<circle cx="9.5" cy="17.4001" r="1" fill="#B1B5C3"/>
<circle cx="1.5" cy="17.4001" r="1" fill="#B1B5C3"/>
<circle cx="9.5" cy="25.4001" r="1" fill="#B1B5C3"/>
<circle cx="1.5" cy="25.4001" r="1" fill="#B1B5C3"/>
<circle cx="9.5" cy="33.4001" r="1" fill="#B1B5C3"/>
<circle cx="1.5" cy="33.4001" r="1" fill="#B1B5C3"/>
<circle cx="9.5" cy="41.4001" r="1" fill="#B1B5C3"/>
<circle cx="1.5" cy="41.4001" r="1" fill="#B1B5C3"/>
<circle cx="9.5" cy="49.4001" r="1" fill="#B1B5C3"/>
<circle cx="1.5" cy="49.4001" r="1" fill="#B1B5C3"/>
<circle cx="9.5" cy="57.4001" r="1" fill="#B1B5C3"/>
<circle cx="1.5" cy="57.4001" r="1" fill="#B1B5C3"/>
<circle cx="9.5" cy="65.4001" r="1" fill="#B1B5C3"/>
<circle cx="1.5" cy="65.4001" r="1" fill="#B1B5C3"/>
<circle cx="9.5" cy="73.4001" r="1" fill="#B1B5C3"/>
<circle cx="1.5" cy="73.4001" r="1" fill="#B1B5C3"/>
<circle cx="9.5" cy="81.4001" r="1" fill="#B1B5C3"/>
<circle cx="1.5" cy="81.4001" r="1" fill="#B1B5C3"/>
<circle cx="9.5" cy="89.4001" r="1" fill="#B1B5C3"/>
<circle cx="1.5" cy="89.4001" r="1" fill="#B1B5C3"/>
<circle cx="9.5" cy="97.4001" r="1" fill="#B1B5C3"/>
<circle cx="1.5" cy="97.4001" r="1" fill="#B1B5C3"/>
<circle cx="9.5" cy="105.4" r="1" fill="#B1B5C3"/>
<circle cx="1.5" cy="105.4" r="1" fill="#B1B5C3"/>
<circle cx="17.5" cy="1.40015" r="1" fill="#B1B5C3"/>
<circle cx="17.5" cy="9.40015" r="1" fill="#B1B5C3"/>
<circle cx="17.5" cy="17.4001" r="1" fill="#B1B5C3"/>
<circle cx="17.5" cy="25.4001" r="1" fill="#B1B5C3"/>
<circle cx="17.5" cy="33.4001" r="1" fill="#B1B5C3"/>
<circle cx="17.5" cy="41.4001" r="1" fill="#B1B5C3"/>
<circle cx="17.5" cy="49.4001" r="1" fill="#B1B5C3"/>
<circle cx="17.5" cy="57.4001" r="1" fill="#B1B5C3"/>
<circle cx="17.5" cy="65.4001" r="1" fill="#B1B5C3"/>
<circle cx="17.5" cy="73.4001" r="1" fill="#B1B5C3"/>
<circle cx="17.5" cy="81.4001" r="1" fill="#B1B5C3"/>
<circle cx="17.5" cy="89.4001" r="1" fill="#B1B5C3"/>
<circle cx="17.5" cy="97.4001" r="1" fill="#B1B5C3"/>
<circle cx="17.5" cy="105.4" r="1" fill="#B1B5C3"/>
<circle cx="25.5" cy="1.40015" r="1" fill="#B1B5C3"/>
<circle cx="25.5" cy="9.40015" r="1" fill="#B1B5C3"/>
<circle cx="25.5" cy="17.4001" r="1" fill="#B1B5C3"/>
<circle cx="25.5" cy="25.4001" r="1" fill="#B1B5C3"/>
<circle cx="25.5" cy="33.4001" r="1" fill="#B1B5C3"/>
<circle cx="25.5" cy="41.4001" r="1" fill="#B1B5C3"/>
<circle cx="25.5" cy="49.4001" r="1" fill="#B1B5C3"/>
<circle cx="25.5" cy="57.4001" r="1" fill="#B1B5C3"/>
<circle cx="25.5" cy="65.4001" r="1" fill="#B1B5C3"/>
<circle cx="25.5" cy="73.4001" r="1" fill="#B1B5C3"/>
<circle cx="25.5" cy="81.4001" r="1" fill="#B1B5C3"/>
<circle cx="25.5" cy="89.4001" r="1" fill="#B1B5C3"/>
<circle cx="25.5" cy="97.4001" r="1" fill="#B1B5C3"/>
<circle cx="25.5" cy="105.4" r="1" fill="#B1B5C3"/>
<circle cx="33.5" cy="1.40015" r="1" fill="#B1B5C3"/>
<circle cx="33.5" cy="9.40015" r="1" fill="#B1B5C3"/>
<circle cx="33.5" cy="17.4001" r="1" fill="#B1B5C3"/>
<circle cx="33.5" cy="25.4001" r="1" fill="#B1B5C3"/>
<circle cx="33.5" cy="33.4001" r="1" fill="#B1B5C3"/>
<circle cx="33.5" cy="41.4001" r="1" fill="#B1B5C3"/>
<circle cx="33.5" cy="49.4001" r="1" fill="#B1B5C3"/>
<circle cx="33.5" cy="57.4001" r="1" fill="#B1B5C3"/>
<circle cx="33.5" cy="65.4001" r="1" fill="#B1B5C3"/>
<circle cx="33.5" cy="73.4001" r="1" fill="#B1B5C3"/>
<circle cx="33.5" cy="81.4001" r="1" fill="#B1B5C3"/>
<circle cx="33.5" cy="89.4001" r="1" fill="#B1B5C3"/>
<circle cx="33.5" cy="97.4001" r="1" fill="#B1B5C3"/>
<circle cx="33.5" cy="105.4" r="1" fill="#B1B5C3"/>
<circle cx="41.5" cy="1.40015" r="1" fill="#B1B5C3"/>
<circle cx="41.5" cy="9.40015" r="1" fill="#B1B5C3"/>
<circle cx="41.5" cy="17.4001" r="1" fill="#B1B5C3"/>
<circle cx="41.5" cy="25.4001" r="1" fill="#B1B5C3"/>
<circle cx="41.5" cy="33.4001" r="1" fill="#B1B5C3"/>
<circle cx="49.5" cy="1.40015" r="1" fill="#B1B5C3"/>
<circle cx="49.5" cy="9.40015" r="1" fill="#B1B5C3"/>
<circle cx="49.5" cy="17.4001" r="1" fill="#B1B5C3"/>
<circle cx="49.5" cy="25.4001" r="1" fill="#B1B5C3"/>
<circle cx="49.5" cy="33.4001" r="1" fill="#B1B5C3"/>
<circle cx="57.5" cy="1.40015" r="1" fill="#B1B5C3"/>
<circle cx="57.5" cy="9.40015" r="1" fill="#B1B5C3"/>
<circle cx="57.5" cy="17.4001" r="1" fill="#B1B5C3"/>
<circle cx="57.5" cy="25.4001" r="1" fill="#B1B5C3"/>
<circle cx="57.5" cy="33.4001" r="1" fill="#B1B5C3"/>
<circle cx="65.5" cy="1.40015" r="1" fill="#B1B5C3"/>
<circle cx="65.5" cy="9.40015" r="1" fill="#B1B5C3"/>
<circle cx="65.5" cy="17.4001" r="1" fill="#B1B5C3"/>
<circle cx="65.5" cy="25.4001" r="1" fill="#B1B5C3"/>
<circle cx="65.5" cy="33.4001" r="1" fill="#B1B5C3"/>
<circle cx="73.5" cy="1.40015" r="1" fill="#B1B5C3"/>
<circle cx="73.5" cy="9.40015" r="1" fill="#B1B5C3"/>
<circle cx="73.5" cy="17.4001" r="1" fill="#B1B5C3"/>
<circle cx="73.5" cy="25.4001" r="1" fill="#B1B5C3"/>
<circle cx="73.5" cy="33.4001" r="1" fill="#B1B5C3"/>
<circle cx="81.5" cy="1.40015" r="1" fill="#B1B5C3"/>
<circle cx="81.5" cy="9.40015" r="1" fill="#B1B5C3"/>
<circle cx="81.5" cy="17.4001" r="1" fill="#B1B5C3"/>
<circle cx="81.5" cy="25.4001" r="1" fill="#B1B5C3"/>
<circle cx="81.5" cy="33.4001" r="1" fill="#B1B5C3"/>
<circle cx="89.5" cy="1.40015" r="1" fill="#B1B5C3"/>
<circle cx="89.5" cy="9.40015" r="1" fill="#B1B5C3"/>
<circle cx="89.5" cy="17.4001" r="1" fill="#B1B5C3"/>
<circle cx="89.5" cy="25.4001" r="1" fill="#B1B5C3"/>
<circle cx="89.5" cy="33.4001" r="1" fill="#B1B5C3"/>
<circle cx="97.5" cy="1.40015" r="1" fill="#B1B5C3"/>
<circle cx="97.5" cy="9.40015" r="1" fill="#B1B5C3"/>
<circle cx="97.5" cy="17.4001" r="1" fill="#B1B5C3"/>
<circle cx="97.5" cy="25.4001" r="1" fill="#B1B5C3"/>
<circle cx="97.5" cy="33.4001" r="1" fill="#B1B5C3"/>
<circle cx="105.5" cy="1.40015" r="1" fill="#B1B5C3"/>
<circle cx="105.5" cy="9.40015" r="1" fill="#B1B5C3"/>
<circle cx="105.5" cy="17.4001" r="1" fill="#B1B5C3"/>
<circle cx="105.5" cy="25.4001" r="1" fill="#B1B5C3"/>
<circle cx="105.5" cy="33.4001" r="1" fill="#B1B5C3"/>
</svg>
