<svg width="159" height="40" viewBox="0 0 159 40" fill="#FFFFFF" xmlns="http://www.w3.org/2000/svg">
<g clip-path="url(#clip0_1_580)">
<path d="M9.69876 21.0839L6.07397 18.1103V34.0719C7.22999 33.4389 8.44478 32.9209 9.69876 32.518V21.0839Z" fill="#FFFFFF"/>
<path d="M14.1073 13.6786H10.4825V32.2494C11.6581 31.9041 12.8729 31.6738 14.1073 31.5204V13.6786Z" fill="#FFFFFF"/>
<path d="M22.9047 11.4532L19.2799 14.6954V31.5396C20.5143 31.6738 21.7291 31.9233 22.9047 32.2686V11.4532Z" fill="#FFFFFF"/>
<path d="M27.3133 18.705H23.6885V32.518C24.9425 32.9209 26.1573 33.4389 27.3133 34.0719V18.705Z" fill="#FFFFFF"/>
<path d="M18.5158 31.4628V10.7626H14.891V31.4628C15.4984 31.4245 16.0862 31.3861 16.6936 31.3861C17.301 31.3861 17.9084 31.4245 18.5158 31.4628Z" fill="#FFFFFF"/>
<path d="M16.6936 31.8465C9.8751 31.8465 3.82072 35.0504 0 40L3.78154 38.4269C7.62185 36.8345 11.952 36.7578 15.8315 38.235L20.4556 40L23.473 38.8873C26.1965 37.8897 29.2334 38.024 31.8394 39.271L33.3677 40C29.5665 35.0504 23.5121 31.8465 16.6936 31.8465Z" fill="#FFFFFF"/>
<path d="M16.5761 0L14.989 9.61151H18.2415L16.5761 0Z" fill="#FFFFFF"/>
<path d="M40.2514 11.9202L36.0916 28.3333H42.2663L44.8012 18.384L46.9462 25.3549L52.406 18.7643L50.716 28.3333H56.5658L60.4007 11.9202H54.4209L48.7661 18.891L46.3612 11.9202H40.2514Z" fill="#FFFFFF"/>
<path d="M65.0155 11.9202L61.2456 28.3333H67.2254L75.2201 18.9544L73.0102 28.3333H79.185L83.2799 11.9202H76.9751L68.9804 21.4892L70.9953 11.9202H65.0155Z" fill="#FFFFFF"/>
<path d="M104.794 11.9202H120.264L119.549 14.8352H114.934L111.814 28.3333H105.639L108.694 14.5184L104.404 14.5818L104.794 11.9202Z" fill="#FFFFFF"/>
<path d="M156.207 11.9202H142.493L138.398 28.3333H144.313L145.418 23.9607L154.842 24.0241C156.077 24.0241 157.117 23.2003 157.312 21.9962L158.612 14.8352C158.937 13.3143 157.767 11.9202 156.207 11.9202ZM151.072 20.9823H146.263L147.953 14.8986H152.502L151.072 20.9823Z" fill="#FFFFFF"/>
<path d="M101.934 11.9202H90.0397C88.6748 11.9202 87.5048 12.8074 87.1798 14.1382L84.5799 24.8479C84.1249 26.6223 85.5549 28.3333 87.4398 28.3333H98.0344L98.6194 25.4816H90.6897L93.4846 14.8986H101.219L101.934 11.9202Z" fill="#FFFFFF"/>
<path d="M123.188 11.6667L134.758 11.9202C136.188 11.9202 137.228 13.251 136.903 14.5818L134.108 26.6224C133.848 27.6363 132.938 28.3334 131.898 28.3334H118.964L119.549 25.4183H128.193L129.038 21.5527H120.589L121.369 18.5109L129.883 18.6376L130.793 14.772L122.409 14.5818L123.188 11.6667Z" fill="#FFFFFF"/>
</g>
<defs>
<clipPath id="clip0_1_580">
<rect width="159" height="40" fill="#FFFFFF"/>
</clipPath>
</defs>
</svg>
