<svg width="18" height="21" viewBox="0 0 18 21" fill="none" xmlns="http://www.w3.org/2000/svg">
<path d="M17 19.4004C17 18.0048 17 17.307 16.8278 16.7392C16.44 15.4608 15.4395 14.4604 14.1611 14.0726C13.5933 13.9004 12.8956 13.9004 11.5 13.9004H6.5C5.10444 13.9004 4.40665 13.9004 3.83886 14.0726C2.56045 14.4604 1.56004 15.4608 1.17224 16.7392C1 17.307 1 18.0048 1 19.4004M13.5 5.90039C13.5 8.38567 11.4853 10.4004 9 10.4004C6.51472 10.4004 4.5 8.38567 4.5 5.90039C4.5 3.41511 6.51472 1.40039 9 1.40039C11.4853 1.40039 13.5 3.41511 13.5 5.90039Z" stroke="#EE1C25" stroke-width="1.5" stroke-linecap="round" stroke-linejoin="round"/>
</svg>
