<svg width="22" height="21" viewBox="0 0 22 21" fill="none" xmlns="http://www.w3.org/2000/svg">
<path d="M7 19.4004V5.40039C7 4.47042 7 4.00543 7.10222 3.62393C7.37962 2.58866 8.18827 1.78001 9.22354 1.50261C9.60504 1.40039 10.07 1.40039 11 1.40039C11.93 1.40039 12.395 1.40039 12.7765 1.50261C13.8117 1.78001 14.6204 2.58866 14.8978 3.62393C15 4.00543 15 4.47042 15 5.40039V19.4004M4.2 19.4004H17.8C18.9201 19.4004 19.4802 19.4004 19.908 19.1824C20.2843 18.9907 20.5903 18.6847 20.782 18.3084C21 17.8805 21 17.3205 21 16.2004V8.60039C21 7.48029 21 6.92023 20.782 6.49241C20.5903 6.11609 20.2843 5.81012 19.908 5.61838C19.4802 5.40039 18.9201 5.40039 17.8 5.40039H4.2C3.07989 5.40039 2.51984 5.40039 2.09202 5.61838C1.71569 5.81012 1.40973 6.11609 1.21799 6.49241C1 6.92023 1 7.48029 1 8.60039V16.2004C1 17.3205 1 17.8805 1.21799 18.3084C1.40973 18.6847 1.71569 18.9907 2.09202 19.1824C2.51984 19.4004 3.0799 19.4004 4.2 19.4004Z" stroke="#EE1C25" stroke-width="1.5" stroke-linecap="round" stroke-linejoin="round"/>
</svg>
