<svg width="22" height="23" viewBox="0 0 22 23" fill="none" xmlns="http://www.w3.org/2000/svg">
<path d="M13.0497 5.40039C14.0264 5.59096 14.924 6.06865 15.6277 6.77233C16.3314 7.476 16.8091 8.37366 16.9997 9.35039M13.0497 1.40039C15.0789 1.62583 16.9713 2.53457 18.4159 3.9774C19.8606 5.42023 20.7717 7.3114 20.9997 9.34039M9.22664 13.2635C8.02506 12.0619 7.07627 10.7032 6.38028 9.25362C6.32041 9.12893 6.29048 9.06659 6.26748 8.98769C6.18576 8.70734 6.24446 8.36308 6.41447 8.12565C6.46231 8.05884 6.51947 8.00168 6.63378 7.88737C6.98338 7.53776 7.15819 7.36296 7.27247 7.18718C7.70347 6.52429 7.70347 5.66971 7.27247 5.00682C7.15819 4.83104 6.98338 4.65624 6.63378 4.30663L6.43891 4.11177C5.90747 3.58032 5.64174 3.3146 5.35636 3.17026C4.7888 2.88319 4.11854 2.88319 3.55098 3.17026C3.2656 3.3146 2.99987 3.58032 2.46843 4.11177L2.3108 4.2694C1.78117 4.79902 1.51636 5.06383 1.31411 5.42387C1.08969 5.82337 0.928332 6.44386 0.929696 6.90209C0.930924 7.31503 1.01103 7.59726 1.17124 8.1617C2.03221 11.1951 3.65668 14.0575 6.04466 16.4454C8.43264 18.8334 11.295 20.4579 14.3284 21.3189C14.8928 21.4791 15.1751 21.5592 15.588 21.5604C16.0462 21.5618 16.6667 21.4004 17.0662 21.176C17.4263 20.9737 17.6911 20.7089 18.2207 20.1793L18.3783 20.0217C18.9098 19.4902 19.1755 19.2245 19.3198 18.9391C19.6069 18.3716 19.6069 17.7013 19.3198 17.1337C19.1755 16.8484 18.9098 16.5826 18.3783 16.0512L18.1835 15.8563C17.8339 15.5067 17.6591 15.3319 17.4833 15.2176C16.8204 14.7866 15.9658 14.7866 15.3029 15.2176C15.1271 15.3319 14.9523 15.5067 14.6027 15.8563C14.4884 15.9706 14.4313 16.0278 14.3644 16.0756C14.127 16.2456 13.7828 16.3043 13.5024 16.2226C13.4235 16.1996 13.3612 16.1697 13.2365 16.1098C11.7869 15.4138 10.4282 14.465 9.22664 13.2635Z" stroke="#EE1C25" stroke-width="1.5" stroke-linecap="round" stroke-linejoin="round"/>
</svg>
