<svg width="28" height="29" viewBox="0 0 28 29" fill="none" xmlns="http://www.w3.org/2000/svg">
<path fill-rule="evenodd" clip-rule="evenodd" d="M28 14.4004C28 22.1324 21.732 28.4004 14 28.4004C6.26801 28.4004 0 22.1324 0 14.4004C0 6.6684 6.26801 0.400391 14 0.400391C21.732 0.400391 28 6.6684 28 14.4004ZM14.5017 10.7358C13.14 11.3022 10.4185 12.4745 6.33721 14.2526C5.67447 14.5162 5.3273 14.774 5.2957 15.0261C5.24228 15.4521 5.77583 15.6199 6.50238 15.8484C6.60121 15.8795 6.70361 15.9117 6.80859 15.9458C7.52341 16.1781 8.48496 16.45 8.98484 16.4608C9.43827 16.4706 9.94435 16.2836 10.5031 15.9C14.3164 13.3259 16.2848 12.0248 16.4084 11.9968C16.4955 11.977 16.6164 11.9521 16.6982 12.0249C16.7801 12.0976 16.772 12.2354 16.7634 12.2724C16.7105 12.4977 14.6161 14.4449 13.5323 15.4525C13.1944 15.7666 12.9548 15.9894 12.9058 16.0403C12.796 16.1543 12.6841 16.2621 12.5766 16.3658C11.9126 17.006 11.4146 17.486 12.6042 18.27C13.1759 18.6467 13.6334 18.9583 14.0898 19.2691C14.5882 19.6085 15.0853 19.947 15.7285 20.3687C15.8924 20.4761 16.0489 20.5877 16.2014 20.6964C16.7814 21.1099 17.3025 21.4814 17.9464 21.4221C18.3204 21.3877 18.7069 21.036 18.9031 19.9868C19.3669 17.5074 20.2786 12.1353 20.4893 9.92153C20.5077 9.72758 20.4845 9.47936 20.4658 9.37039C20.4472 9.26143 20.4082 9.10618 20.2666 8.99126C20.0989 8.85515 19.8399 8.82645 19.7241 8.82849C19.1975 8.83776 18.3896 9.11868 14.5017 10.7358Z" fill="#B1B5C3"/>
</svg>
