<svg width="28" height="28" viewBox="0 0 28 28" fill="none" xmlns="http://www.w3.org/2000/svg">
<path fill-rule="evenodd" clip-rule="evenodd" d="M1.70967e-06 27.4612C0.00265812 27.6426 0.120676 27.8409 0.277797 27.928C0.349753 27.9679 0.47021 28.0003 0.54548 28C0.62075 27.9997 2.01256 27.5232 3.63839 26.9411L6.59444 25.8827L6.86815 26.0448C7.9847 26.7059 9.77831 27.4179 10.9738 27.6744C15.6922 28.6867 20.5091 27.288 23.8942 23.9225C26.0651 21.7643 27.4481 18.9654 27.9242 15.7669C28.0362 15.0146 28.0212 12.8606 27.8984 12.071C27.5463 9.80522 26.8136 7.90216 25.6113 6.13014C23.3421 2.78581 19.8594 0.643091 15.7637 0.0715409C15.0801 -0.023847 12.9437 -0.023847 12.2602 0.0715409C9.07969 0.515379 6.30722 1.87817 4.10636 4.07953C1.90321 6.28318 0.561803 9.02091 0.0968956 12.2626C-0.01099 13.0149 0.00798572 15.1187 0.129983 15.9311C0.255654 16.7679 0.582748 18.0735 0.843346 18.7783C1.04797 19.3318 1.70415 20.7095 2.03335 21.2769L2.21232 21.5854L1.10519 24.457C0.49627 26.0364 -0.00106404 27.3883 1.70967e-06 27.4612ZM18.7107 20.8683C19.2557 20.6804 19.6625 20.4296 20.06 20.0367C20.4711 19.6304 20.7473 19.1839 20.9366 18.6196C21.071 18.2192 21.0802 18.1321 21.0638 17.4074C21.0483 16.7183 21.0334 16.6125 20.9368 16.5053C20.8765 16.4385 20.2361 16.0874 19.5135 15.725C18.2816 15.1071 18.1758 15.0645 17.8165 15.041C17.1995 15.0008 16.5402 15.2881 15.878 15.8858L15.5643 16.169L15.1027 15.9406C13.7393 15.2657 12.7541 14.2925 12.0863 12.9605L11.8294 12.4482L12.1915 11.9996C12.3906 11.7529 12.6404 11.3662 12.7464 11.1403C12.9188 10.773 12.9394 10.6802 12.9411 10.2641L12.943 9.79868L12.2761 8.47716C11.8542 7.64126 11.5551 7.1131 11.462 7.03987C11.3279 6.93436 11.2459 6.92409 10.5384 6.92409C9.98806 6.92409 9.67537 6.94955 9.46462 7.0115C8.3042 7.35263 7.36331 8.33771 7.05821 9.53091C6.78071 10.6162 7.01114 11.7051 7.87958 13.4125C8.99872 15.6127 10.343 17.2974 11.9044 18.4566C13.5567 19.6833 15.4879 20.6848 16.749 20.9689C17.2901 21.0908 18.201 21.0441 18.7107 20.8683Z" fill="#0CBB52"/>
</svg>
