<svg width="28" height="29" viewBox="0 0 28 29" fill="none" xmlns="http://www.w3.org/2000/svg">
<path fill-rule="evenodd" clip-rule="evenodd" d="M1.70967e-06 27.8616C0.00265812 28.043 0.120676 28.2413 0.277797 28.3284C0.349753 28.3683 0.47021 28.4007 0.54548 28.4004C0.62075 28.4001 2.01256 27.9236 3.63839 27.3415L6.59444 26.2831L6.86815 26.4452C7.9847 27.1063 9.77831 27.8183 10.9738 28.0747C15.6922 29.0871 20.5091 27.6884 23.8942 24.3229C26.0651 22.1647 27.4481 19.3657 27.9242 16.1672C28.0362 15.4149 28.0212 13.261 27.8984 12.4713C27.5463 10.2056 26.8136 8.30255 25.6113 6.53053C23.3421 3.1862 19.8594 1.04348 15.7637 0.471931C15.0801 0.376544 12.9437 0.376544 12.2602 0.471931C9.07969 0.91577 6.30722 2.27856 4.10636 4.47992C1.90321 6.68357 0.561803 9.4213 0.0968956 12.663C-0.01099 13.4152 0.00798572 15.5191 0.129983 16.3315C0.255654 17.1683 0.582748 18.4739 0.843346 19.1787C1.04797 19.7322 1.70415 21.1099 2.03335 21.6773L2.21232 21.9858L1.10519 24.8574C0.49627 26.4368 -0.00106404 27.7887 1.70967e-06 27.8616ZM18.7107 21.2687C19.2557 21.0808 19.6625 20.83 20.06 20.4371C20.4711 20.0308 20.7473 19.5843 20.9366 19.02C21.071 18.6196 21.0802 18.5325 21.0638 17.8078C21.0483 17.1187 21.0334 17.0129 20.9368 16.9057C20.8765 16.8389 20.2361 16.4878 19.5135 16.1254C18.2816 15.5075 18.1758 15.4649 17.8165 15.4414C17.1995 15.4011 16.5402 15.6885 15.878 16.2862L15.5643 16.5694L15.1027 16.341C13.7393 15.6661 12.7541 14.6929 12.0863 13.3609L11.8294 12.8486L12.1915 12.4C12.3906 12.1533 12.6404 11.7666 12.7464 11.5406C12.9188 11.1734 12.9394 11.0806 12.9411 10.6645L12.943 10.1991L12.2761 8.87755C11.8542 8.04165 11.5551 7.51349 11.462 7.44026C11.3279 7.33475 11.2459 7.32448 10.5384 7.32448C9.98806 7.32448 9.67537 7.34994 9.46462 7.41189C8.3042 7.75302 7.36331 8.7381 7.05821 9.9313C6.78071 11.0166 7.01114 12.1055 7.87958 13.8128C8.99872 16.0131 10.343 17.6978 11.9044 18.857C13.5567 20.0837 15.4879 21.0852 16.749 21.3693C17.2901 21.4912 18.201 21.4445 18.7107 21.2687Z" fill="#B1B5C3"/>
</svg>
